<svg xmlns="http://www.w3.org/2000/svg" aria-hidden="true" style="position:absolute;width:0;height:0;overflow:hidden"><defs><symbol id="icon-e-mail" viewBox="0 0 32 32"><path fill="none" stroke="#fff" stroke-linecap="round" stroke-linejoin="round" stroke-miterlimit="10" stroke-width="2" d="M22.667 27.333H9.334c-4 0-6.667-2-6.667-6.667v-9.333c0-4.667 2.667-6.667 6.667-6.667h13.333c4 0 6.667 2 6.667 6.667v9.333c0 4.667-2.667 6.667-6.667 6.667z" style="stroke:var(--color1, #fff)"/><path fill="none" stroke="#fff" stroke-linecap="round" stroke-linejoin="round" stroke-miterlimit="10" stroke-width="2" d="m22.667 12-4.173 3.333c-1.373 1.093-3.627 1.093-5 0L9.334 12" style="stroke:var(--color1, #fff)"/></symbol><symbol id="icon-clock" viewBox="0 0 32 32"><path fill="none" stroke="#fff" stroke-linecap="round" stroke-linejoin="round" stroke-width="2" d="M29.333 16c0 7.36-5.973 13.333-13.333 13.333S2.667 23.36 2.667 16 8.64 2.667 16 2.667 29.333 8.64 29.333 16z" style="stroke:var(--color1, #fff)"/><path fill="none" stroke="#fff" stroke-linecap="round" stroke-linejoin="round" stroke-width="2" d="m20.947 20.24-4.133-2.467c-.72-.427-1.307-1.453-1.307-2.293v-5.467" style="stroke:var(--color1, #fff)"/></symbol><symbol id="icon-phone" viewBox="0 0 32 32"><path fill="none" stroke="#fff" stroke-miterlimit="10" stroke-width="2" d="M29.293 24.44c0 .48-.107.973-.333 1.453s-.52.933-.907 1.36c-.653.72-1.373 1.24-2.187 1.573-.8.333-1.667.507-2.6.507-1.36 0-2.813-.32-4.347-.973s-3.067-1.533-4.587-2.64a38.616 38.616 0 0 1-4.376-3.736l.002.002a38.065 38.065 0 0 1-3.647-4.255l-.073-.105c-1.093-1.52-1.973-3.04-2.613-4.547-.64-1.52-.96-2.973-.96-4.36 0-.907.16-1.773.48-2.573.32-.813.827-1.56 1.533-2.227.853-.84 1.787-1.253 2.773-1.253.373 0 .747.08 1.08.24.347.16.653.4.893.747l3.093 4.36c.24.333.413.64.533.933.12.28.187.56.187.813 0 .32-.093.64-.28.947a4.52 4.52 0 0 1-.747.947l-1.013 1.053a.712.712 0 0 0-.213.533c0 .107.013.2.04.307.04.107.08.187.107.267.24.44.653 1.013 1.24 1.707.6.693 1.24 1.4 1.933 2.107.72.707 1.413 1.36 2.12 1.96.693.587 1.267.987 1.72 1.227.067.027.147.067.24.107a.92.92 0 0 0 .333.053c.227 0 .4-.08.547-.227l1.013-1c.333-.333.653-.587.96-.747.307-.187.613-.28.947-.28.253 0 .52.053.813.173s.6.293.933.52l4.413 3.133c.347.24.587.52.733.853.133.333.213.667.213 1.04z" style="stroke:var(--color1, #fff)"/><path fill="none" stroke="#fff" stroke-linecap="round" stroke-linejoin="round" stroke-width="2" d="M24.667 12c0-.8-.627-2.027-1.56-3.027-.853-.92-1.987-1.64-3.107-1.64M29.333 12A9.326 9.326 0 0 0 20 2.667" style="stroke:var(--color1, #fff)"/></symbol><symbol id="icon-location" viewBox="0 0 32 32"><path fill="none" stroke="#fff" stroke-linecap="round" stroke-linejoin="round" stroke-width="2" d="M29.333 12v8c0 3.333-.667 5.667-2.16 7.173l-8.507-8.507L28.973 8.359c.24 1.053.36 2.253.36 3.64z" style="stroke:var(--color1, #fff)"/><path fill="none" stroke="#fff" stroke-linecap="round" stroke-linejoin="round" stroke-width="2" d="M28.973 8.36 8.36 28.973C4.347 28.053 2.667 25.28 2.667 20v-8c0-6.667 2.667-9.333 9.333-9.333h8c5.28 0 8.053 1.68 8.973 5.693z" style="stroke:var(--color1, #fff)"/><path fill="none" stroke="#fff" stroke-linecap="round" stroke-linejoin="round" stroke-width="2" d="M27.173 27.173c-1.507 1.493-3.84 2.16-7.173 2.16h-8c-1.387 0-2.587-.12-3.64-.36l10.307-10.307 8.507 8.507z" style="stroke:var(--color1, #fff)"/><path fill="none" stroke="#fff" stroke-width="2" d="M8.32 10.64c.907-3.907 6.773-3.907 7.68 0 .52 2.293-.92 4.24-2.187 5.44-.43.409-1.012.66-1.653.66s-1.224-.252-1.654-.661l.001.001c-1.267-1.2-2.72-3.147-2.187-5.44z" style="stroke:var(--color1, #fff)"/><path fill="none" stroke="#fff" stroke-linecap="round" stroke-linejoin="round" stroke-width="2.667" d="M12.127 11.6h.012" style="stroke:var(--color1, #fff)"/></symbol><symbol id="icon-arrow-down" viewBox="0 0 32 32"><path fill="none" stroke="#d3b47f" stroke-linecap="round" stroke-linejoin="round" stroke-miterlimit="10" stroke-width=".914" d="m11.933 5.44 8.694 8.694a2.647 2.647 0 0 1 0 3.733l-8.694 8.694" style="stroke:var(--color1, #d3b47f)"/></symbol><symbol id="icon-arrow-up" viewBox="0 0 32 32"><path fill="none" stroke="#fff" stroke-linecap="round" stroke-linejoin="round" stroke-miterlimit="10" stroke-width=".914" d="m20.067 5.44-8.694 8.694a2.647 2.647 0 0 0 0 3.733l8.694 8.694" style="stroke:var(--color1, #fff)"/></symbol><symbol id="icon-reviews" viewBox="0 0 46 32"><path fill="#d3b47f" d="M11.108 32c-1.89 0-3.59-.334-5.101-1.004-1.436-.743-2.569-1.747-3.401-3.01-.756-1.115-1.398-2.527-1.927-4.237-.454-1.784-.68-3.679-.68-5.686 0-3.717.945-7.173 2.834-10.37 1.965-3.271 4.988-5.836 9.068-7.694l1.02 2.007c-2.04.892-3.854 2.23-5.441 4.014-1.587 1.71-2.607 3.531-3.06 5.463-.529 1.858-.604 3.642-.226 5.352 1.814-2.007 4.307-3.01 7.481-3.01 2.796 0 5.063.781 6.801 2.342s2.607 3.791 2.607 6.69c0 2.75-.945 4.98-2.834 6.69C16.435 31.182 14.055 32 11.108 32zm24.71 0c-1.889 0-3.59-.334-5.101-1.004-1.436-.743-2.569-1.747-3.401-3.01-.756-1.115-1.398-2.527-1.927-4.237-.454-1.784-.68-3.679-.68-5.686 0-3.717.945-7.173 2.834-10.37C29.508 4.422 32.531 1.858 36.612 0l1.02 2.007c-2.04.892-3.854 2.23-5.441 4.014-1.587 1.71-2.607 3.531-3.06 5.463-.53 1.858-.605 3.642-.227 5.352 1.814-2.007 4.307-3.01 7.481-3.01 2.796 0 5.063.781 6.801 2.342s2.606 3.791 2.606 6.691c0 2.75-.945 4.98-2.834 6.69-1.814 1.635-4.194 2.452-7.142 2.452z" style="fill:var(--color1, #d3b47f)"/></symbol></defs></svg>